Coordinates
version=1
nRows=32
nColumns=22
inDegrees=yes

Units are S.I. units (second, meters, Newtons, ...)
If the header above contains a line with 'inDegrees', this indicates whether rotational values are in degrees (yes) or radians (no).

endheader
time	pelvis_tilt	pelvis_list	pelvis_rotation	pelvis_tx	pelvis_ty	pelvis_tz	hip_flexion_r	hip_adduction_r	hip_rotation_r	knee_angle_r	ankle_angle_r	subtalar_angle_r	hip_flexion_l	hip_adduction_l	hip_rotation_l	knee_angle_l	ankle_angle_l	subtalar_angle_l	lumbar_extension	lumbar_bending	lumbar_rotation
      4.02000000	      3.70949179	      1.91142587	     82.32852310	      0.82640388	      1.05879632	      0.12557229	     16.55706759	      3.51895276	      1.34072457	    -13.82239789	      3.85049163	      5.21198099	     -6.32390066	      0.50252721	     17.57351691	    -30.73576757	     14.88211084	     -1.75985960	     -2.47632080	      3.12490532	     -5.70645098
      4.03000000	      3.90569041	      1.96928904	     82.91554961	      0.82927223	      1.05992745	      0.11889760	     16.11026440	      3.73365298	      1.01150360	    -13.92341032	      3.93758588	      5.06690122	     -5.74576629	      0.17354962	     16.97892271	    -32.41209227	     13.65151587	     -0.48793083	     -2.48312118	      3.39030853	     -5.84060241
      4.04000000	      4.09967767	      2.05320891	     83.55175303	      0.83206431	      1.06106250	      0.11228936	     15.61525902	      3.93809902	      0.61447280	    -13.97133999	      4.08134506	      4.89395051	     -5.10190832	     -0.18498099	     16.30836793	    -34.17838371	     12.31636796	      0.72987356	     -2.51414358	      3.64138816	     -6.01169984
      4.05000000	      4.26907517	      2.16463153	     84.20917422	      0.83481387	      1.06219139	      0.10572469	     15.07269404	      4.11256936	      0.13669547	    -13.96281822	      4.28805686	      4.72409580	     -4.40644391	     -0.55619190	     15.53559927	    -36.00421396	     10.89476483	      1.88896179	     -2.56259110	      3.84871999	     -6.16594940
      4.06000000	      4.46276474	      2.30349432	     84.90867269	      0.83744321	      1.06328254	      0.09927906	     14.49385297	      4.30057025	     -0.43484829	    -13.92375461	      4.53692367	      4.59601967	     -3.65078143	     -0.98422814	     14.72414434	    -37.91495482	      9.42767021	      2.84529672	     -2.64751029	      4.08416968	     -6.35177874
      4.07000000	      4.65154573	      2.47447011	     85.61403617	      0.84005249	      1.06437724	      0.09291582	     13.85990568	      4.48416724	     -1.07868872	    -13.82107452	      4.76487260	      4.53322933	     -2.86674538	     -1.44149707	     13.86554885	    -39.85577439	      7.89006951	      3.50409249	     -2.76124989	      4.29706566	     -6.51935937
      4.08000000	      4.84067727	      2.66335031	     86.31611703	      0.84261752	      1.06540793	      0.08669141	     13.21475649	      4.67329300	     -1.76178213	    -13.71281161	      5.07714717	      4.49823298	     -2.03735895	     -1.92551069	     12.99460015	    -41.83578010	      6.36753316	      4.06750442	     -2.89722291	      4.50674950	     -6.65562599
      4.09000000	      5.02709361	      2.86967621	     87.00446345	      0.84517135	      1.06641864	      0.08058000	     12.53810693	      4.87189252	     -2.46127409	    -13.55828517	      5.39714045	      4.49618949	     -1.18505872	     -2.42523849	     12.14377932	    -43.81606658	      4.82049241	      4.44668346	     -3.04720169	      4.70288812	     -6.74358328
      4.10000000	      5.22474304	      3.08161243	     87.69135282	      0.84768604	      1.06737127	      0.07465657	     11.86169391	      5.09649360	     -3.15124397	    -13.38927225	      5.71655532	      4.51376733	     -0.29198014	     -2.93962998	     11.37475035	    -45.80785132	      3.27992830	      4.70560575	     -3.20861066	      4.90706047	     -6.82350088
      4.11000000	      5.41293899	      3.29616435	     88.35910437	      0.85016548	      1.06830109	      0.06887208	     11.17504552	      5.33035769	     -3.80897289	    -13.18029505	      6.01159568	      4.53716991	      0.61824288	     -3.43548751	     10.69338777	    -47.76539610	      1.71177841	      4.86752472	     -3.36712007	      5.09663742	     -6.85324068
      4.12000000	      5.59994248	      3.50089808	     89.01763661	      0.85258583	      1.06916108	      0.06328645	     10.51682082	      5.58064926	     -4.42437864	    -12.97656120	      6.31443382	      4.56097122	      1.56311618	     -3.91023379	     10.12841059	    -49.69545380	      0.15895374	      4.94072943	     -3.51708137	      5.28688380	     -6.87467298
      4.13000000	      5.75762416	      3.70436245	     89.64076847	      0.85498107	      1.07001544	      0.05782436	      9.85671993	      5.82171023	     -4.98218292	    -12.74164161	      6.58543929	      4.56733425	      2.50077514	     -4.33020931	      9.65328503	    -51.54611147	     -1.40718757	      5.01066203	     -3.65743131	      5.43955254	     -6.82977745
      4.14000000	      5.87321276	      3.92355780	     90.22081143	      0.85735792	      1.07089952	      0.05251136	      9.18575866	      6.03974072	     -5.46131594	    -12.49327929	      6.79617530	      4.55807658	      3.40144462	     -4.68111223	      9.25085706	    -53.29470606	     -2.95363572	      5.15413850	     -3.81631399	      5.54044331	     -6.71735460
      4.15000000	      5.99361345	      4.11067083	     90.79964082	      0.85963762	      1.07168586	      0.04736411	      8.56082215	      6.27173194	     -5.93666309	    -12.23997621	      7.04131313	      4.52847003	      4.33467139	     -5.00591276	      8.96131425	    -54.97059638	     -4.35786840	      5.29722450	     -3.93702350	      5.65687170	     -6.61242759
      4.16000000	      6.06577911	      4.30749904	     91.33220817	      0.86191707	      1.07250564	      0.04235001	      7.92714763	      6.47071183	     -6.34623591	    -11.96998318	      7.21634235	      4.49416884	      5.21889971	     -5.26510120	      8.69839181	    -56.50646420	     -5.62558675	      5.51752757	     -4.07251344	      5.71294646	     -6.44279657
      4.17000000	      6.12261607	      4.49425574	     91.83507728	      0.86415230	      1.07329202	      0.03749306	      7.30917052	      6.66496530	     -6.72986004	    -11.68569499	      7.37441341	      4.44739652	      6.08399898	     -5.48521535	      8.48476902	    -57.91609060	     -6.65327172	      5.77246975	     -4.20383938	      5.75551861	     -6.25534612
      4.18000000	      6.16231666	      4.66966960	     92.31266000	      0.86634168	      1.07404375	      0.03278068	      6.70199063	      6.85103385	     -7.08698292	    -11.37877903	      7.50257773	      4.38376763	      6.92565404	     -5.66935233	      8.30545106	    -59.18544691	     -7.36393276	      6.03973567	     -4.33072157	      5.78230638	     -6.05220447
      4.19000000	      6.18463446	      4.83999859	     92.75808103	      0.86849877	      1.07476899	      0.02820028	      6.09719914	      7.02962975	     -7.40802418	    -11.04976361	      7.60642104	      4.30159976	      7.72850365	     -5.81926421	      8.14444096	    -60.30039090	     -7.71715775	      6.27426646	     -4.46174897	      5.79102529	     -5.83116382
      4.20000000	      6.18820293	      5.01162314	     93.16744769	      0.87061145	      1.07547958	      0.02372952	      5.48500914	      7.19712309	     -7.69760083	    -10.69577993	      7.67700982	      4.21576149	      8.47806360	     -5.93923711	      7.97857689	    -61.24803193	     -7.71105591	      6.40366300	     -4.60169975	      5.78360495	     -5.59970156
      4.21000000	      6.17526656	      5.18010866	     93.54615051	      0.87269754	      1.07615824	      0.01936549	      4.87248221	      7.35570210	     -7.95691691	    -10.32299986	      7.71419745	      4.11447680	      9.17756700	     -6.02877473	      7.82227749	    -62.02790045	     -7.33895012	      6.43174399	     -4.74804088	      5.75669924	     -5.35508844
      4.22000000	      6.15776258	      5.34839747	     93.89500146	      0.87474304	      1.07680553	      0.01509285	      4.25862427	      7.51560378	     -8.19511906	     -9.93440800	      7.72236126	      3.99919543	      9.82609451	     -6.10649432	      7.66425618	    -62.64258118	     -6.67330226	      6.36812191	     -4.89778476	      5.72994566	     -5.11129911
      4.23000000	      6.13995002	      5.51604165	     94.21608775	      0.87675797	      1.07741346	      0.01089656	      3.64787895	      7.68017684	     -8.41322862	     -9.53917690	      7.70565180	      3.87207672	     10.42345278	     -6.18260639	      7.50237056	    -63.09348124	     -5.75502634	      6.23598586	     -5.04784136	      5.70622529	     -4.86873357
      4.24000000	      6.12170018	      5.68200813	     94.50865449	      0.87875607	      1.07798329	      0.00677224	      3.04694876	      7.84793397	     -8.61029202	     -9.14871025	      7.66703552	      3.73688809	     10.97025304	     -6.25939015	      7.33751866	    -63.38300334	     -4.66497433	      6.06630345	     -5.19561418	      5.68198601	     -4.62202647
      4.25000000	      6.10048395	      5.84251341	     94.77351157	      0.88074445	      1.07850921	      0.00269961	      2.46536445	      8.01442752	     -8.78751107	     -8.77518504	      7.61027105	      3.60275574	     11.46625041	     -6.33871994	      7.16455927	    -63.51160306	     -3.46194942	      5.88059110	     -5.33315755	      5.65188656	     -4.37775909
      4.26000000	      6.08412608	      6.00156005	     95.00470494	      0.88271017	      1.07899113	     -0.00133212	      1.89879257	      8.18572036	     -8.95520614	     -8.42007759	      7.54082228	      3.46882258	     11.90976443	     -6.43113511	      6.97820478	    -63.49013098	     -2.21848506	      5.68945962	     -5.46252898	      5.63183384	     -4.13554792
      4.27000000	      6.07069505	      6.14419181	     95.20502092	      0.88466299	      1.07940216	     -0.00528247	      1.37759138	      8.35639078	     -9.11171854	     -8.10567653	      7.47943939	      3.35432855	     12.31897644	     -6.53237527	      6.78291270	    -63.32412981	     -0.96751510	      5.50076863	     -5.57411461	      5.61311239	     -3.89691520
      4.28000000	      6.05781986	      6.27239925	     95.37303061	      0.88658458	      1.07974590	     -0.00916253	      0.89528678	      8.52242849	     -9.25330401	     -7.82727955	      7.42282785	      3.24317372	     12.69178502	     -6.64123087	      6.57279328	    -63.02223434	      0.24935095	      5.31187301	     -5.66916680	      5.59661017	     -3.66196792
      4.29000000	      6.04037847	      6.38199151	     95.50883357	      0.88847895	      1.08002033	     -0.01293801	      0.45936731	      8.67733098	     -9.37674901	     -7.58791116	      7.37261106	      3.12266534	     13.03460701	     -6.75022336	      6.34768248	    -62.59045661	      1.41036109	      5.11250850	     -5.74963295	      5.57590238	     -3.42794744
      4.30000000	      6.01785356	      6.46411293	     95.61523062	      0.89033528	      1.08022020	     -0.01660931	      0.08179865	      8.81794239	     -9.48531308	     -7.39489286	      7.34089326	      2.98774560	     13.35705811	     -6.85854119	      6.10501474	    -62.03369203	      2.50775550	      4.88765530	     -5.80520877	      5.55186286	     -3.20127214
      4.31000000	      5.98848055	      6.51140617	     95.70145202	      0.89215628	      1.08033009	     -0.02015000	     -0.22290782	      8.93990106	     -9.58369627	     -7.25854463	      7.34319249	      2.85583700	     13.67691644	     -6.96451683	      5.84586333	    -61.36865552	      3.55914000	      4.64323733	     -5.83289361	      5.52055399	     -3.00696294
      4.32000000	      5.96413507	      6.55906328	     95.76046224	      0.89395100	      1.08043718	     -0.02359888	     -0.51673123	      9.06546068	     -9.64209396	     -7.13404776	      7.32878143	      2.62948177	     13.94198683	     -7.07354679	      5.59048944	    -60.58166065	      4.54167581	      4.27344942	     -5.86840497	      5.49497120	     -2.76911332
      4.33000000	      5.92807677	      6.58590630	     95.80823855	      0.89571336	      1.08051251	     -0.02696950	     -0.76501718	      9.17002426	     -9.69629883	     -7.05149840	      7.34509904	      2.38770204	     14.18157031	     -7.17552280	      5.32352010	    -59.68593612	      5.48922767	      3.85706390	     -5.88607572	      5.45851912	     -2.57793481
